<svg enable-background="new 0 0 24 24" height="512" viewBox="0 0 24 24" width="512" xmlns="http://www.w3.org/2000/svg"><path d="m21.25 3h-18.5c-1.517 0-2.75 1.233-2.75 2.75v12.5c0 1.517 1.233 2.75 2.75 2.75h18.5c1.517 0 2.75-1.233 2.75-2.75v-12.5c0-1.517-1.233-2.75-2.75-2.75z" fill="#2196f3"/><path d="m12 6c-3.309 0-6 2.691-6 6s2.691 6 6 6c.414 0 .75-.336.75-.75s-.336-.75-.75-.75c-2.481 0-4.5-2.019-4.5-4.5s2.019-4.5 4.5-4.5 4.5 2.019 4.5 4.5v1.75c0 .413-.337.75-.75.75s-.75-.337-.75-.75v-1.75c0-1.654-1.346-3-3-3s-3 1.346-3 3 1.346 3 3 3c.605 0 1.168-.184 1.641-.494.312.868 1.135 1.494 2.109 1.494 1.24 0 2.25-1.01 2.25-2.25v-1.75c0-3.309-2.691-6-6-6zm0 7.5c-.827 0-1.5-.673-1.5-1.5s.673-1.5 1.5-1.5 1.5.673 1.5 1.5-.673 1.5-1.5 1.5z" fill="#fafafa"/><path d="m12 10.5c-.827 0-1.5.673-1.5 1.5s.673 1.5 1.5 1.5zm0-3c-2.481 0-4.5 2.019-4.5 4.5s2.019 4.5 4.5 4.5v-1.5c-1.654 0-3-1.346-3-3s1.346-3 3-3zm0-4.5h-9.25c-1.517 0-2.75 1.233-2.75 2.75v12.5c0 1.517 1.233 2.75 2.75 2.75h9.25v-3c-3.309 0-6-2.691-6-6s2.691-6 6-6z" fill="#1d83d4"/><path d="m12 9c-1.654 0-3 1.346-3 3s1.346 3 3 3v-1.5c-.827 0-1.5-.673-1.5-1.5s.673-1.5 1.5-1.5zm0-3c-3.309 0-6 2.691-6 6s2.691 6 6 6v-1.5c-2.481 0-4.5-2.019-4.5-4.5s2.019-4.5 4.5-4.5z" fill="#dadada"/></svg>