<svg enable-background="new 0 0 24 24" height="512" viewBox="0 0 24 24" width="512" xmlns="http://www.w3.org/2000/svg"><path d="m24 8.65v1.59l-11.07 5.78c-.58.3-1.28.3-1.86 0l-11.07-5.78v-1.59c0-.83.46-1.59 1.19-1.98l9.75-5.21c.66-.35 1.46-.35 2.12 0l9.75 5.21c.73.39 1.19 1.15 1.19 1.98z" fill="#2196f3"/><path d="m21 2.75c0-1.519-1.231-2.75-2.75-2.75h-12.5c-1.519 0-2.75 1.231-2.75 2.75v17.32c0 .414.336.75.75.75h16.5c.414 0 .75-.336.75-.75z" fill="#eceff1"/><path d="m24 10.24v10.51c0 1.24-1.01 2.25-2.25 2.25h-19.5c-1.24 0-2.25-1.01-2.25-2.25v-10.51l11.07 5.78c.58.3 1.28.3 1.86 0z" fill="#64b5f6"/><path d="m12 0h-6.25c-1.519 0-2.75 1.231-2.75 2.75v2.953 6.104l8.07 4.213c.29.15.61.225.93.225v-6.245h-4c-.552 0-1-.448-1-1s.448-1 1-1h4z" fill="#cdd0d2"/><path d="m3 5.703-1.81.967c-.73.39-1.19 1.15-1.19 1.98v1.59l3 1.566z" fill="#1d83d4"/><path d="m0 10.24v10.51c0 1.24 1.01 2.25 2.25 2.25h9.75v-6.755c-.32 0-.64-.075-.93-.225l-8.07-4.213z" fill="#579ed6"/><path d="m12 8h-4c-.552 0-1 .448-1 1s.448 1 1 1h4z" fill="#7d8f97"/><path d="m16 10h-8c-.552 0-1-.448-1-1s.448-1 1-1h8c.552 0 1 .448 1 1s-.448 1-1 1z" fill="#90a4ae"/><path d="m12 6h-4c-.552 0-1-.448-1-1s.448-1 1-1h4c.552 0 1 .448 1 1s-.448 1-1 1z" fill="#90a4ae"/><path d="m10 4h-2c-.552 0-1 .448-1 1s.448 1 1 1h2z" fill="#7d8f97"/></svg>