<?xml version="1.0" encoding="utf-8"?>
<!-- Generator: Adobe Illustrator 21.0.0, SVG Export Plug-In . SVG Version: 6.00 Build 0)  -->
<svg version="1.1" id="Layer_1" xmlns="http://www.w3.org/2000/svg" xmlns:xlink="http://www.w3.org/1999/xlink" x="0px" y="0px"
	 width="1400px" height="980px" viewBox="0 0 1400 980" enable-background="new 0 0 1400 980" xml:space="preserve">
<g>
	<g>
		<g>
			<path fill="#231F20" d="M447.4,779.1H306.9c-5.8,0-10.6,6.2-10.6,13.8v118.4c0,7.6,4.8,13.8,10.6,13.8h140.5
				c5.8,0,10.6-6.2,10.6-13.8V792.9C458,785.3,453.2,779.1,447.4,779.1z"/>
			<path fill="#231F20" d="M447.4,928.1H306.9c-7.5,0-13.6-7.5-13.6-16.8V792.9c0-9.3,6.1-16.8,13.6-16.8h140.5
				c7.5,0,13.6,7.5,13.6,16.8v118.4C461,920.6,454.9,928.1,447.4,928.1z M306.9,782c-4.2,0-7.7,5-7.7,10.9v118.4
				c0,5.9,3.5,10.9,7.7,10.9h140.5c4.2,0,7.7-5,7.7-10.9V792.9c0-5.9-3.5-10.9-7.7-10.9H306.9z"/>
		</g>
		<g>
			<g>
				<path fill="#231F20" d="M371.2,786.2c-12.5,0-22.6-10.1-22.6-22.6s10.1-22.6,22.6-22.6s22.6,10.1,22.6,22.6
					S383.7,786.2,371.2,786.2z M371.2,747c-9.2,0-16.7,7.5-16.7,16.7c0,9.2,7.5,16.7,16.7,16.7s16.7-7.5,16.7-16.7
					C387.9,754.4,380.4,747,371.2,747z"/>
			</g>
		</g>
		<g>
			<path fill="#FFFFFF" d="M441.5,763.6H301c-5.8,0-10.6,6.2-10.6,13.8v118.4c0,7.6,4.8,13.8,10.6,13.8h140.5
				c5.8,0,10.6-6.2,10.6-13.8V777.5C452.1,769.9,447.3,763.6,441.5,763.6z"/>
			<path fill="#231F20" d="M441.5,912.7H301c-7.5,0-13.6-7.5-13.6-16.8V777.5c0-9.3,6.1-16.8,13.6-16.8h140.5
				c7.5,0,13.6,7.5,13.6,16.8v118.4C455.1,905.1,449,912.7,441.5,912.7z M301,766.6c-4.2,0-7.7,5-7.7,10.9v118.4
				c0,5.9,3.5,10.9,7.7,10.9h140.5c4.2,0,7.7-5,7.7-10.9V777.5c0-5.9-3.5-10.9-7.7-10.9H301z"/>
		</g>
	</g>
	<g>
		<g>
			<path fill="#231F20" d="M321.8,149.4H124.7c-6.8,0-12.4-5.6-12.4-12.4V56c0-6.8,5.6-12.4,12.4-12.4h197.2
				c6.8,0,12.4,5.6,12.4,12.4v81C334.3,143.9,328.7,149.4,321.8,149.4z M124.7,49.5c-3.6,0-6.5,2.9-6.5,6.5v81
				c0,3.6,2.9,6.5,6.5,6.5h197.2c3.6,0,6.5-2.9,6.5-6.5V56c0-3.6-2.9-6.5-6.5-6.5H124.7z"/>
		</g>
		<g>
			<rect x="44.5" y="93.6" fill="#231F20" width="70.7" height="5.9"/>
		</g>
		<g>
			<rect x="331.3" y="93.6" fill="#231F20" width="70.7" height="5.9"/>
		</g>
	</g>
	<g>
		<g>
			<path fill="#FFFFFF" d="M803,261.3H445c-6.3,0-11.5,4.1-11.5,9.2v78.7c0,5.1,5.2,9.2,11.5,9.2H803c6.3,0,11.5-4.1,11.5-9.2v-78.7
				C814.5,265.4,809.3,261.3,803,261.3z"/>
			<path fill="#231F20" d="M803,361.3H445c-8,0-14.4-5.4-14.4-12.1v-78.7c0-6.7,6.5-12.1,14.4-12.1H803c8,0,14.4,5.4,14.4,12.1v78.7
				C817.5,355.9,811,361.3,803,361.3z M445,264.2c-4.6,0-8.5,2.9-8.5,6.3v78.7c0,3.4,3.9,6.3,8.5,6.3H803c4.6,0,8.5-2.9,8.5-6.3
				v-78.7c0-3.4-3.9-6.3-8.5-6.3H445z"/>
		</g>
		<g>
			<defs>
				<path id="SVGID_1_" d="M803,261.3H445c-6.3,0-11.5,4.1-11.5,9.2v78.7c0,5.1,5.2,9.2,11.5,9.2H803c6.3,0,11.5-4.1,11.5-9.2v-78.7
					C814.5,265.4,809.3,261.3,803,261.3z"/>
			</defs>
			<clipPath id="SVGID_2_">
				<use xlink:href="#SVGID_1_"  overflow="visible"/>
			</clipPath>
			<g clip-path="url(#SVGID_2_)">
				<g>
					
						<rect x="300.2" y="306.9" transform="matrix(0.7071 -0.7071 0.7071 0.7071 -99.4091 379.6804)" fill="#231F20" width="216.9" height="5.9"/>
				</g>
				<g>
					
						<rect x="323.8" y="306.9" transform="matrix(0.7071 -0.7071 0.7071 0.7071 -92.477 396.4159)" fill="#231F20" width="216.9" height="5.9"/>
				</g>
				<g>
					
						<rect x="347.5" y="306.9" transform="matrix(0.7071 -0.7071 0.7071 0.7071 -85.5448 413.1518)" fill="#231F20" width="216.9" height="5.9"/>
				</g>
				<g>
					
						<rect x="371.2" y="306.9" transform="matrix(0.7071 -0.7071 0.7071 0.7071 -78.6127 429.8874)" fill="#231F20" width="216.9" height="5.9"/>
				</g>
				<g>
					
						<rect x="394.9" y="306.9" transform="matrix(0.7071 -0.7071 0.7071 0.7071 -71.6806 446.6229)" fill="#231F20" width="216.9" height="5.9"/>
				</g>
				<g>
					
						<rect x="418.5" y="306.9" transform="matrix(0.7071 -0.7071 0.7071 0.7071 -64.7484 463.3588)" fill="#231F20" width="216.9" height="5.9"/>
				</g>
				<g>
					
						<rect x="442.2" y="306.9" transform="matrix(0.7071 -0.7071 0.7071 0.7071 -57.8163 480.0944)" fill="#231F20" width="216.9" height="5.9"/>
				</g>
				<g>
					
						<rect x="465.9" y="306.9" transform="matrix(0.7071 -0.7071 0.7071 0.7071 -50.8842 496.8299)" fill="#231F20" width="216.9" height="5.9"/>
				</g>
				<g>
					
						<rect x="489.5" y="306.9" transform="matrix(0.7071 -0.7071 0.7071 0.7071 -43.9519 513.5658)" fill="#231F20" width="216.9" height="5.9"/>
				</g>
				<g>
					
						<rect x="513.2" y="306.9" transform="matrix(0.7071 -0.7071 0.7071 0.7071 -37.0198 530.3014)" fill="#231F20" width="216.9" height="5.9"/>
				</g>
				<g>
					
						<rect x="536.9" y="306.9" transform="matrix(0.7071 -0.7071 0.7071 0.7071 -30.0877 547.0369)" fill="#231F20" width="216.9" height="5.9"/>
				</g>
				<g>
					
						<rect x="560.5" y="306.9" transform="matrix(0.7071 -0.7071 0.7071 0.7071 -23.1555 563.7728)" fill="#231F20" width="216.9" height="5.9"/>
				</g>
				<g>
					
						<rect x="584.2" y="306.9" transform="matrix(0.7071 -0.7071 0.7071 0.7071 -16.2234 580.5084)" fill="#231F20" width="216.9" height="5.9"/>
				</g>
				<g>
					
						<rect x="607.9" y="306.9" transform="matrix(0.7071 -0.7071 0.7071 0.7071 -9.2913 597.2439)" fill="#231F20" width="216.9" height="5.9"/>
				</g>
				<g>
					
						<rect x="631.5" y="306.9" transform="matrix(0.7071 -0.7071 0.7071 0.7071 -2.3591 613.9798)" fill="#231F20" width="216.9" height="5.9"/>
				</g>
				<g>
					
						<rect x="655.2" y="306.9" transform="matrix(0.7071 -0.7071 0.7071 0.7071 4.573 630.7154)" fill="#231F20" width="216.9" height="5.9"/>
				</g>
				<g>
					
						<rect x="678.9" y="306.9" transform="matrix(0.7071 -0.7071 0.7071 0.7071 11.5051 647.4509)" fill="#231F20" width="216.9" height="5.9"/>
				</g>
				<g>
					
						<rect x="702.5" y="306.9" transform="matrix(0.7071 -0.7071 0.7071 0.7071 18.4373 664.1868)" fill="#231F20" width="216.9" height="5.9"/>
				</g>
				<g>
					
						<rect x="726.2" y="306.9" transform="matrix(0.7071 -0.7071 0.7071 0.7071 25.3694 680.9224)" fill="#231F20" width="216.9" height="5.9"/>
				</g>
			</g>
		</g>
		<g>
			<path fill="#FFFFFF" d="M789.9,273.8H458.1c-3.3,0-6,3.1-6,6.8V339c0,3.8,2.7,6.8,6,6.8h331.8c3.3,0,6-3.1,6-6.8v-58.4
				C795.9,276.9,793.2,273.8,789.9,273.8z"/>
			<path fill="#231F20" d="M789.9,348.8H458.1c-4.9,0-8.9-4.4-8.9-9.8v-58.4c0-5.4,4-9.8,8.9-9.8h331.8c4.9,0,8.9,4.4,8.9,9.8V339
				C798.8,344.4,794.8,348.8,789.9,348.8z M458.1,276.8c-1.6,0-3,1.8-3,3.9V339c0,2.1,1.4,3.9,3,3.9h331.8c1.6,0,3-1.8,3-3.9v-58.4
				c0-2.1-1.4-3.9-3-3.9H458.1z"/>
		</g>
	</g>
	<g>
		<g>
			<path fill="#231F20" d="M321.5,276.3H124.3c-6.8,0-12.4-5.6-12.4-12.4v-81c0-6.8,5.6-12.4,12.4-12.4h197.2
				c6.8,0,12.4,5.6,12.4,12.4v81C333.9,270.7,328.4,276.3,321.5,276.3z M124.3,176.4c-3.6,0-6.5,2.9-6.5,6.5v81
				c0,3.6,2.9,6.5,6.5,6.5h197.2c3.6,0,6.5-2.9,6.5-6.5v-81c0-3.6-2.9-6.5-6.5-6.5H124.3z"/>
		</g>
		<g>
			<path fill="#231F20" d="M153.5,166.8h-37.3c-1.6,0-2.9-1.3-2.9-2.9c0-1.6,1.3-2.9,2.9-2.9h37.3c1.6,0,2.9,1.3,2.9,2.9
				C156.4,165.5,155.1,166.8,153.5,166.8z"/>
		</g>
		<g>
			<path fill="#231F20" d="M106.3,191c-1.6,0-2.9-1.3-2.9-2.9v-15.7c0-1.6,1.3-2.9,2.9-2.9c1.6,0,2.9,1.3,2.9,2.9V188
				C109.3,189.6,108,191,106.3,191z"/>
		</g>
		<g>
			<path fill="#231F20" d="M330.3,285.3H293c-1.6,0-2.9-1.3-2.9-2.9s1.3-2.9,2.9-2.9h37.3c1.6,0,2.9,1.3,2.9,2.9
				S332,285.3,330.3,285.3z"/>
		</g>
		<g>
			<path fill="#231F20" d="M340.2,276.8c-1.6,0-2.9-1.3-2.9-2.9v-15.7c0-1.6,1.3-2.9,2.9-2.9c1.6,0,2.9,1.3,2.9,2.9v15.7
				C343.1,275.5,341.8,276.8,340.2,276.8z"/>
		</g>
	</g>
	<g>
		<path fill="#231F20" d="M304.3,717.7H129.8c-6.2,0-11.3-5.6-11.3-12.4v-81.2l-15.1-0.2l0.1-3c0.2-3.6,3.1-9,10.6-9h190.1
			c6.2,0,11.3,5.6,11.3,12.4v81C315.6,712.1,310.5,717.7,304.3,717.7z M111.8,618.2l12.6,0.2v87c0,3.5,2.5,6.5,5.4,6.5h174.4
			c2.9,0,5.4-3,5.4-6.5v-81c0-3.5-2.5-6.5-5.4-6.5H114.1C113.2,617.8,112.4,617.9,111.8,618.2z"/>
	</g>
	<g>
		<path fill="#231F20" d="M174.7,908.8l-61.9-51.2V775l-9.4-0.2l0.1-3c0.1-4.4,2.6-9.1,7.7-9.1H229c4.6,0,8.1,5.3,8.1,12.4v82.4
			L174.7,908.8z M118.7,854.8l56,46.3l56.6-46.3v-79.6c0-4.2-1.7-6.4-2.2-6.5H111.2c-0.3,0-0.6,0.1-0.8,0.4l8.3,0.2V854.8z"/>
	</g>
	<g>
		<g>
			<path fill="#231F20" d="M313,427.9H115.8c-6.8,0-12.4-5.6-12.4-12.4v-81c0-6.8,5.6-12.4,12.4-12.4H313c6.8,0,12.4,5.6,12.4,12.4
				v81C325.4,422.3,319.8,427.9,313,427.9z M115.8,328c-3.6,0-6.5,2.9-6.5,6.5v81c0,3.6,2.9,6.5,6.5,6.5H313c3.6,0,6.5-2.9,6.5-6.5
				v-81c0-3.6-2.9-6.5-6.5-6.5H115.8z"/>
		</g>
		<g>
			<g>
				<path fill="#231F20" d="M117.2,354.6c-1.6,0-2.9-1.3-2.9-2.9V336c0-1.6,1.3-2.9,2.9-2.9c1.6,0,2.9,1.3,2.9,2.9v15.7
					C120.1,353.3,118.8,354.6,117.2,354.6z"/>
			</g>
			<g>
				<path fill="#231F20" d="M311.7,416.9c-1.6,0-2.9-1.3-2.9-2.9v-15.7c0-1.6,1.3-2.9,2.9-2.9c1.6,0,2.9,1.3,2.9,2.9V414
					C314.6,415.6,313.3,416.9,311.7,416.9z"/>
			</g>
		</g>
	</g>
	<g>
		<g>
			<path fill="#231F20" d="M737.5,448.5H518.4c-5.8,0-10.6,6.2-10.6,13.8v118.4c0,7.6,4.8,13.8,10.6,13.8h219.1
				c5.8,0,10.6-6.2,10.6-13.8V462.3C748.1,454.7,743.3,448.5,737.5,448.5z"/>
			<path fill="#231F20" d="M737.5,597.5H518.4c-7.5,0-13.6-7.5-13.6-16.8V462.3c0-9.3,6.1-16.8,13.6-16.8h219.1
				c7.5,0,13.6,7.5,13.6,16.8v118.4C751.1,590,745,597.5,737.5,597.5z M518.4,451.4c-4.2,0-7.7,5-7.7,10.9v118.4
				c0,5.9,3.5,10.9,7.7,10.9h219.1c4.2,0,7.7-5,7.7-10.9V462.3c0-5.9-3.5-10.9-7.7-10.9H518.4z"/>
		</g>
		<g>
			<path fill="#FFFFFF" d="M729.6,433.1H510.5c-5.8,0-10.6,6.2-10.6,13.8v118.4c0,7.6,4.8,13.8,10.6,13.8h219.1
				c5.8,0,10.6-6.2,10.6-13.8V446.9C740.3,439.3,735.5,433.1,729.6,433.1z"/>
			<path fill="#231F20" d="M729.6,582.1H510.5c-7.5,0-13.6-7.5-13.6-16.8V446.9c0-9.3,6.1-16.8,13.6-16.8h219.1
				c7.5,0,13.6,7.5,13.6,16.8v118.4C743.2,574.6,737.1,582.1,729.6,582.1z M510.5,436c-4.2,0-7.7,5-7.7,10.9v118.4
				c0,5.9,3.5,10.9,7.7,10.9h219.1c4.2,0,7.7-5,7.7-10.9V446.9c0-5.9-3.5-10.9-7.7-10.9H510.5z"/>
		</g>
		<g>
			<g>
				<circle fill="#231F20" cx="526" cy="452.3" r="9.7"/>
			</g>
			<g>
				<circle fill="#231F20" cx="563.3" cy="452.3" r="9.7"/>
			</g>
			<g>
				<circle fill="#231F20" cx="600.6" cy="452.3" r="9.7"/>
			</g>
			<g>
				<circle fill="#231F20" cx="638" cy="452.3" r="9.7"/>
			</g>
			<g>
				<circle fill="#231F20" cx="675.3" cy="452.3" r="9.7"/>
			</g>
			<g>
				<circle fill="#231F20" cx="712.6" cy="452.3" r="9.7"/>
			</g>
		</g>
	</g>
	<g>
		<g>
			<path fill="#FFFFFF" d="M516.9,695v219.1c0,5.8,6.2,10.6,13.8,10.6h177.3c7.6,0,13.8-4.8,13.8-10.6V695c0-5.8-6.2-10.6-13.8-10.6
				H530.7C523.1,684.4,516.9,689.2,516.9,695z"/>
			<path fill="#231F20" d="M708.1,927.7H530.7c-9.3,0-16.8-6.1-16.8-13.6V695c0-7.5,7.5-13.6,16.8-13.6h177.3
				c9.3,0,16.8,6.1,16.8,13.6v219.1C724.9,921.6,717.3,927.7,708.1,927.7z M530.7,687.4c-5.9,0-10.9,3.5-10.9,7.7v219.1
				c0,4.2,5,7.7,10.9,7.7h177.3c5.9,0,10.9-3.5,10.9-7.7V695c0-4.2-5-7.7-10.9-7.7H530.7z"/>
		</g>
		<g>
			<g>
				<circle fill="#231F20" cx="536.1" cy="898.7" r="9.7"/>
			</g>
			<g>
				<circle fill="#231F20" cx="536.1" cy="861.4" r="9.7"/>
			</g>
			<g>
				<circle fill="#231F20" cx="536.1" cy="749.4" r="9.7"/>
			</g>
			<g>
				<circle fill="#231F20" cx="536.1" cy="712" r="9.7"/>
			</g>
		</g>
	</g>
	<g>
		<path fill="#FFFFFF" d="M411.2,464.8H115.8c-5.2,0-9.5,4.3-9.5,9.5v81c0,5.2,4.3,9.5,9.5,9.5h295.4c5.2,0,9.5-4.3,9.5-9.5v-81
			C420.7,469.1,416.4,464.8,411.2,464.8z"/>
		<path fill="#231F20" d="M411.2,567.7h-2.1c-1.6,0-2.9-1.3-2.9-2.9c0-1.6,1.3-2.9,2.9-2.9h2.1c2.7,0,5.2-1.7,6.1-4.3
			c0.1-0.2,0.2-0.4,0.3-0.6c0-0.2,0-0.5,0-0.7c0-0.3,0.1-0.6,0.1-0.9v-10.5c0-1.6,1.3-2.9,2.9-2.9s2.9,1.3,2.9,2.9v10.5
			c0,0.6,0,1.1-0.1,1.7c-0.1,0.4-0.2,0.9-0.5,1.2c0,0.4,0,0.9-0.2,1.3C421.2,564.4,416.5,567.7,411.2,567.7z M397.3,567.7h-2
			c-1.6,0-2.9-1.3-2.9-2.9c0-1.6,1.3-2.9,2.9-2.9h2c1.6,0,2.9,1.3,2.9,2.9C400.3,566.4,399,567.7,397.3,567.7z M381.6,567.7h-11.8
			c-0.3,0-0.7-0.1-1-0.2c-0.3,0.1-0.6,0.2-1,0.2h-13.8c-1.6,0-2.9-1.3-2.9-2.9c0-1.6,1.3-2.9,2.9-2.9h13.8c0.3,0,0.7,0.1,1,0.2
			c0.3-0.1,0.6-0.2,1-0.2h11.8c1.6,0,2.9,1.3,2.9,2.9C384.6,566.4,383.2,567.7,381.6,567.7z M342.3,567.7h-2c-1.6,0-2.9-1.3-2.9-2.9
			c0-1.6,1.3-2.9,2.9-2.9h2c1.6,0,2.9,1.3,2.9,2.9C345.3,566.4,344,567.7,342.3,567.7z M326.6,567.7h-11.8c-0.3,0-0.7-0.1-1-0.2
			c-0.3,0.1-0.6,0.2-1,0.2h-13.8c-1.6,0-2.9-1.3-2.9-2.9c0-1.6,1.3-2.9,2.9-2.9h13.8c0.3,0,0.7,0.1,1,0.2c0.3-0.1,0.6-0.2,1-0.2
			h11.8c1.6,0,2.9,1.3,2.9,2.9C329.6,566.4,328.2,567.7,326.6,567.7z M287.3,567.7h-2c-1.6,0-2.9-1.3-2.9-2.9c0-1.6,1.3-2.9,2.9-2.9
			h2c1.6,0,2.9,1.3,2.9,2.9C290.3,566.4,288.9,567.7,287.3,567.7z M271.6,567.7h-11.8c-0.3,0-0.7-0.1-1-0.2c-0.3,0.1-0.6,0.2-1,0.2
			h-13.8c-1.6,0-2.9-1.3-2.9-2.9c0-1.6,1.3-2.9,2.9-2.9h13.8c0.3,0,0.7,0.1,1,0.2c0.3-0.1,0.6-0.2,1-0.2h11.8c1.6,0,2.9,1.3,2.9,2.9
			C274.5,566.4,273.2,567.7,271.6,567.7z M232.3,567.7h-2c-1.6,0-2.9-1.3-2.9-2.9c0-1.6,1.3-2.9,2.9-2.9h2c1.6,0,2.9,1.3,2.9,2.9
			C235.2,566.4,233.9,567.7,232.3,567.7z M216.6,567.7h-11.8c-0.3,0-0.7-0.1-1-0.2c-0.3,0.1-0.6,0.2-1,0.2h-13.8
			c-1.6,0-2.9-1.3-2.9-2.9c0-1.6,1.3-2.9,2.9-2.9h13.8c0.3,0,0.7,0.1,1,0.2c0.3-0.1,0.6-0.2,1-0.2h11.8c1.6,0,2.9,1.3,2.9,2.9
			C219.5,566.4,218.2,567.7,216.6,567.7z M177.3,567.7h-2c-1.6,0-2.9-1.3-2.9-2.9c0-1.6,1.3-2.9,2.9-2.9h2c1.6,0,2.9,1.3,2.9,2.9
			C180.2,566.4,178.9,567.7,177.3,567.7z M161.6,567.7h-11.8c-0.3,0-0.7-0.1-1-0.2c-0.3,0.1-0.6,0.2-1,0.2h-13.8
			c-1.6,0-2.9-1.3-2.9-2.9c0-1.6,1.3-2.9,2.9-2.9h13.8c0.3,0,0.7,0.1,1,0.2c0.3-0.1,0.6-0.2,1-0.2h11.8c1.6,0,2.9,1.3,2.9,2.9
			C164.5,566.4,163.2,567.7,161.6,567.7z M122.3,567.7h-2c-1.6,0-2.9-1.3-2.9-2.9c0-1.6,1.3-2.9,2.9-2.9h2c1.6,0,2.9,1.3,2.9,2.9
			C125.2,566.4,123.9,567.7,122.3,567.7z M108,563.5c-0.9,0-1.9-0.5-2.4-1.3c-1.4-2.1-2.1-4.5-2.1-6.9v-6.2c0-0.3,0.1-0.7,0.2-1
			c-0.1-0.3-0.2-0.6-0.2-1v-13.8c0-1.6,1.3-2.9,2.9-2.9c1.6,0,2.9,1.3,2.9,2.9v13.8c0,0.3-0.1,0.7-0.2,1c0.1,0.3,0.2,0.6,0.2,1v6.2
			c0,1.3,0.4,2.5,1.1,3.6c0.9,1.3,0.6,3.2-0.8,4.1C109.1,563.3,108.5,563.5,108,563.5z M420.7,534c-1.6,0-2.9-1.3-2.9-2.9v-2
			c0-1.6,1.3-2.9,2.9-2.9s2.9,1.3,2.9,2.9v2C423.7,532.6,422.3,534,420.7,534z M106.3,524.5c-1.6,0-2.9-1.3-2.9-2.9v-2
			c0-1.6,1.3-2.9,2.9-2.9c1.6,0,2.9,1.3,2.9,2.9v2C109.3,523.2,108,524.5,106.3,524.5z M420.7,520.2c-1.6,0-2.9-1.3-2.9-2.9v-13.8
			c0-0.3,0.1-0.7,0.2-1c-0.1-0.3-0.2-0.6-0.2-1v-11.8c0-1.6,1.3-2.9,2.9-2.9s2.9,1.3,2.9,2.9v11.8c0,0.3-0.1,0.7-0.2,1
			c0.1,0.3,0.2,0.6,0.2,1v13.8C423.7,518.9,422.3,520.2,420.7,520.2z M106.3,508.8c-1.6,0-2.9-1.3-2.9-2.9v-11.8
			c0-0.3,0.1-0.7,0.2-1c-0.1-0.3-0.2-0.6-0.2-1v-13.8c0-1.6,1.3-2.9,2.9-2.9c1.6,0,2.9,1.3,2.9,2.9v13.8c0,0.3-0.1,0.7-0.2,1
			c0.1,0.3,0.2,0.6,0.2,1v11.8C109.3,507.5,108,508.8,106.3,508.8z M420.7,478.9c-1.6,0-2.9-1.3-2.9-2.9v-1.7c0-1.6,1.2-3.1,2.9-3.1
			c1.7-0.1,3,1.1,3,2.8l0,2.1C423.7,477.6,422.3,478.9,420.7,478.9z M109.3,470.4c-0.8,0-1.6-0.3-2.1-0.9c-1.1-1.2-1.1-3,0.1-4.2
			c0.6-0.6,1.3-1.1,2-1.6c1.4-0.8,3.2-0.4,4.1,1c0.9,1.4,0.4,3.2-1,4.1c-0.4,0.2-0.7,0.5-1.1,0.8
			C110.8,470.1,110.1,470.4,109.3,470.4z M414,468.2c-0.3,0-0.6,0-0.9-0.1c-0.6-0.2-1.2-0.3-1.9-0.3h-11.8c-1.6,0-2.9-1.3-2.9-2.9
			c0-1.6,1.3-2.9,2.9-2.9h11.8c1.2,0,2.5,0.2,3.6,0.5c1.6,0.5,2.4,2.1,2,3.7C416.4,467.4,415.3,468.2,414,468.2z M385.7,467.8h-2
			c-1.6,0-2.9-1.3-2.9-2.9c0-1.6,1.3-2.9,2.9-2.9h2c1.6,0,2.9,1.3,2.9,2.9C388.6,466.5,387.3,467.8,385.7,467.8z M371.9,467.8h-13.8
			c-0.3,0-0.7-0.1-1-0.2c-0.3,0.1-0.6,0.2-1,0.2h-11.8c-1.6,0-2.9-1.3-2.9-2.9c0-1.6,1.3-2.9,2.9-2.9h11.8c0.3,0,0.7,0.1,1,0.2
			c0.3-0.1,0.6-0.2,1-0.2h13.8c1.6,0,2.9,1.3,2.9,2.9C374.9,466.5,373.6,467.8,371.9,467.8z M330.7,467.8h-2c-1.6,0-2.9-1.3-2.9-2.9
			c0-1.6,1.3-2.9,2.9-2.9h2c1.6,0,2.9,1.3,2.9,2.9C333.6,466.5,332.3,467.8,330.7,467.8z M316.9,467.8h-13.8c-0.3,0-0.7-0.1-1-0.2
			c-0.3,0.1-0.6,0.2-1,0.2h-11.8c-1.6,0-2.9-1.3-2.9-2.9c0-1.6,1.3-2.9,2.9-2.9h11.8c0.3,0,0.7,0.1,1,0.2c0.3-0.1,0.6-0.2,1-0.2
			h13.8c1.6,0,2.9,1.3,2.9,2.9C319.9,466.5,318.6,467.8,316.9,467.8z M275.7,467.8h-2c-1.6,0-2.9-1.3-2.9-2.9c0-1.6,1.3-2.9,2.9-2.9
			h2c1.6,0,2.9,1.3,2.9,2.9C278.6,466.5,277.3,467.8,275.7,467.8z M261.9,467.8h-13.8c-0.3,0-0.7-0.1-1-0.2c-0.3,0.1-0.6,0.2-1,0.2
			h-11.8c-1.6,0-2.9-1.3-2.9-2.9c0-1.6,1.3-2.9,2.9-2.9h11.8c0.3,0,0.7,0.1,1,0.2c0.3-0.1,0.6-0.2,1-0.2h13.8c1.6,0,2.9,1.3,2.9,2.9
			C264.9,466.5,263.5,467.8,261.9,467.8z M220.7,467.8h-2c-1.6,0-2.9-1.3-2.9-2.9c0-1.6,1.3-2.9,2.9-2.9h2c1.6,0,2.9,1.3,2.9,2.9
			C223.6,466.5,222.3,467.8,220.7,467.8z M206.9,467.8h-13.8c-0.3,0-0.7-0.1-1-0.2c-0.3,0.1-0.6,0.2-1,0.2h-11.8
			c-1.6,0-2.9-1.3-2.9-2.9c0-1.6,1.3-2.9,2.9-2.9h11.8c0.3,0,0.7,0.1,1,0.2c0.3-0.1,0.6-0.2,1-0.2h13.8c1.6,0,2.9,1.3,2.9,2.9
			C209.9,466.5,208.5,467.8,206.9,467.8z M165.6,467.8h-2c-1.6,0-2.9-1.3-2.9-2.9c0-1.6,1.3-2.9,2.9-2.9h2c1.6,0,2.9,1.3,2.9,2.9
			C168.6,466.5,167.3,467.8,165.6,467.8z M151.9,467.8h-13.8c-0.3,0-0.7-0.1-1-0.2c-0.3,0.1-0.6,0.2-1,0.2h-11.8
			c-1.6,0-2.9-1.3-2.9-2.9c0-1.6,1.3-2.9,2.9-2.9h11.8c0.3,0,0.7,0.1,1,0.2c0.3-0.1,0.6-0.2,1-0.2h13.8c1.6,0,2.9,1.3,2.9,2.9
			C154.8,466.5,153.5,467.8,151.9,467.8z"/>
	</g>
	<g>
		<circle fill="#FFFFFF" cx="838.9" cy="747.7" r="66.8"/>
		<path fill="#231F20" d="M838.9,817.5c-4.6,0-9.2-0.5-13.7-1.3c-0.4-0.1-0.7-0.2-1-0.4c-0.3,0-0.7,0-1-0.1c-4-0.9-7.9-2.2-11.7-3.8
			c-1.5-0.6-2.2-2.4-1.6-3.9c0.6-1.5,2.4-2.2,3.9-1.6c3.4,1.5,7,2.6,10.7,3.5c0.3,0.1,0.6,0.2,0.9,0.4c0.3,0,0.6,0,1,0
			c4.1,0.8,8.3,1.2,12.5,1.2l0.5,0c0,0,0,0,0,0c1.6,0,2.9,1.3,2.9,2.9c0,1.6-1.3,3-2.9,3L838.9,817.5z M851.2,816.3
			c-1.4,0-2.6-1-2.9-2.4c-0.3-1.6,0.8-3.1,2.4-3.4c0.6-0.1,1.2-0.2,1.8-0.4c1.6-0.3,3.2,0.7,3.5,2.3c0.3,1.6-0.7,3.2-2.3,3.5
			c-0.7,0.1-1.3,0.3-2,0.4C851.6,816.3,851.4,816.3,851.2,816.3z M866.2,811.7c-1.1,0-2.2-0.6-2.7-1.7c-0.7-1.5,0-3.2,1.5-3.9
			c3.4-1.5,6.7-3.4,9.8-5.5c0.3-0.2,0.6-0.3,0.9-0.4c0.2-0.3,0.4-0.5,0.7-0.7c3.5-2.6,6.8-5.5,9.8-8.7c1.1-1.2,3-1.3,4.2-0.2
			c1.2,1.1,1.3,3,0.2,4.2c-3.2,3.5-6.8,6.7-10.7,9.5c-0.3,0.2-0.6,0.4-0.9,0.4c-0.2,0.3-0.4,0.5-0.7,0.7c-3.4,2.3-7,4.3-10.7,6
			C867,811.6,866.6,811.7,866.2,811.7z M800.7,805.4c-0.6,0-1.2-0.2-1.7-0.5c-0.6-0.4-1.1-0.8-1.7-1.2c-1.3-1-1.6-2.8-0.6-4.1
			c1-1.3,2.8-1.6,4.1-0.6c0.5,0.4,1,0.7,1.5,1.1c1.3,0.9,1.7,2.8,0.7,4.1C802.5,805,801.6,805.4,800.7,805.4z M790.3,796.5
			c-0.8,0-1.6-0.3-2.1-0.9c-3.3-3.5-6.2-7.3-8.7-11.4c-0.2-0.3-0.3-0.6-0.4-1c-0.3-0.2-0.5-0.5-0.7-0.8c-2-3.6-3.8-7.3-5.2-11.2
			c-0.5-1.5,0.2-3.2,1.8-3.8c1.5-0.5,3.2,0.2,3.8,1.8c1.3,3.5,2.8,7,4.7,10.2c0.2,0.3,0.3,0.6,0.3,0.9c0.2,0.2,0.4,0.4,0.6,0.7
			c2.3,3.7,5,7.2,8,10.4c1.1,1.2,1.1,3.1-0.1,4.2C791.8,796.2,791,796.5,790.3,796.5z M895.4,786.3c-0.5,0-1.1-0.1-1.6-0.5
			c-1.4-0.9-1.8-2.7-0.9-4.1c0.3-0.5,0.7-1.1,1-1.6c0.8-1.4,2.6-1.9,4-1c1.4,0.8,1.9,2.6,1,4c-0.3,0.6-0.7,1.2-1.1,1.8
			C897.4,785.8,896.4,786.3,895.4,786.3z M902.2,772.2c-0.3,0-0.6,0-0.9-0.2c-1.5-0.5-2.4-2.2-1.8-3.7c1.2-3.5,2.1-7.2,2.7-10.9
			c0-0.3,0.2-0.6,0.3-0.9c-0.1-0.3-0.1-0.6,0-1c0.3-2.6,0.5-5.2,0.5-7.8c0-1.8-0.1-3.6-0.2-5.4c-0.1-1.6,1.1-3,2.7-3.2
			c1.6-0.1,3,1.1,3.2,2.7c0.2,1.9,0.2,3.9,0.2,5.8c0,2.8-0.2,5.7-0.5,8.5c0,0.4-0.1,0.7-0.3,1c0.1,0.3,0.1,0.7,0,1
			c-0.6,4.1-1.6,8.1-2.9,11.9C904.6,771.4,903.4,772.2,902.2,772.2z M772.8,759.9c-1.4,0-2.7-1.1-2.9-2.5c-0.1-0.7-0.2-1.4-0.3-2
			c-0.2-1.6,1-3.1,2.6-3.2c1.6-0.2,3.1,1,3.2,2.6c0.1,0.6,0.1,1.2,0.2,1.9c0.2,1.6-0.9,3.1-2.5,3.3
			C773,759.9,772.9,759.9,772.8,759.9z M772.1,750.7c-1.6,0-2.9-1.3-2.9-2.9c0-4.1,0.4-8.2,1.1-12.2c0.3-1.6,1.8-2.7,3.4-2.4
			c1.6,0.3,2.7,1.8,2.4,3.4c-0.7,3.7-1,7.4-1,11.2C775.1,749.3,773.8,750.7,772.1,750.7z M903.5,733.5c-1.3,0-2.5-0.9-2.8-2.2
			c-0.2-0.6-0.3-1.2-0.5-1.8c-0.5-1.6,0.4-3.2,2-3.7c1.6-0.5,3.2,0.4,3.7,2c0.2,0.7,0.4,1.3,0.6,2c0.4,1.6-0.5,3.2-2.1,3.6
			C904,733.4,903.7,733.5,903.5,733.5z M776.9,725.7c-0.4,0-0.7-0.1-1.1-0.2c-1.5-0.6-2.2-2.3-1.6-3.8c0.3-0.6,0.5-1.3,0.8-1.9
			c0.7-1.5,2.4-2.2,3.9-1.5c1.5,0.7,2.2,2.4,1.5,3.9c-0.3,0.6-0.5,1.2-0.7,1.7C779.2,725,778.1,725.7,776.9,725.7z M897.7,718.9
			c-1,0-2.1-0.6-2.6-1.5c-1.8-3.3-3.9-6.4-6.2-9.4c-0.2-0.3-0.4-0.5-0.5-0.8c-0.3-0.2-0.5-0.4-0.7-0.6c-2.8-3.3-6-6.4-9.5-9.1
			c-1.3-1-1.5-2.9-0.5-4.1c1-1.3,2.9-1.5,4.1-0.5c3.8,2.9,7.2,6.3,10.3,9.9c0.2,0.3,0.4,0.6,0.5,0.9c0.3,0.2,0.6,0.4,0.8,0.7
			c2.6,3.2,4.8,6.7,6.8,10.2c0.8,1.4,0.2,3.2-1.2,4C898.7,718.8,898.2,718.9,897.7,718.9z M783.3,713.6c-0.6,0-1.1-0.2-1.6-0.5
			c-1.4-0.9-1.7-2.7-0.8-4.1c2.7-4,5.7-7.7,9.1-11c0.3-0.3,0.5-0.4,0.9-0.6c0.2-0.3,0.4-0.6,0.6-0.8c3-2.8,6.3-5.3,9.7-7.5
			c1.4-0.9,3.2-0.5,4.1,0.9c0.9,1.4,0.5,3.2-0.9,4.1c-3.1,2-6.1,4.3-8.9,6.9c-0.2,0.2-0.5,0.4-0.8,0.5c-0.1,0.3-0.3,0.5-0.6,0.8
			c-3.1,3.1-5.9,6.5-8.4,10.1C785.2,713.1,784.3,713.6,783.3,713.6z M870.2,691.6c-0.5,0-0.9-0.1-1.4-0.3c-0.6-0.3-1.1-0.6-1.7-0.9
			c-1.5-0.7-2.1-2.5-1.3-4c0.7-1.5,2.5-2.1,3.9-1.3c0.6,0.3,1.2,0.6,1.8,0.9c1.4,0.8,2,2.5,1.2,4
			C872.3,691.1,871.3,691.6,870.2,691.6z M815.1,688.2c-1.2,0-2.3-0.7-2.8-1.9c-0.6-1.5,0.2-3.2,1.7-3.8c0.6-0.2,1.3-0.5,1.9-0.7
			c1.5-0.5,3.2,0.3,3.8,1.8c0.5,1.5-0.3,3.2-1.8,3.8c-0.6,0.2-1.2,0.4-1.8,0.6C815.8,688.2,815.4,688.2,815.1,688.2z M855.6,686
			c-0.2,0-0.5,0-0.7-0.1c-3.6-0.9-7.4-1.5-11.1-1.8c-0.3,0-0.6-0.1-0.9-0.2c-0.3,0.1-0.6,0.1-1,0.1c-4.3-0.2-8.8,0-13.1,0.7
			c-1.6,0.3-3.1-0.8-3.4-2.4c-0.3-1.6,0.8-3.1,2.4-3.4c4.7-0.7,9.6-1,14.3-0.8c0.4,0,0.7,0.1,1,0.2c0.3-0.1,0.7-0.1,1-0.1
			c4.1,0.3,8.2,1,12.1,2c1.6,0.4,2.5,2,2.1,3.6C858.1,685.1,856.9,686,855.6,686z"/>
	</g>
	<g>
		<g>
			<circle fill="#231F20" cx="838.9" cy="586.1" r="69.4"/>
		</g>
		<g>
			<circle fill="#FFFFFF" cx="835.4" cy="583.4" r="66.8"/>
			<path fill="#231F20" d="M835.4,653.2c-38.5,0-69.7-31.3-69.7-69.7c0-38.5,31.3-69.7,69.7-69.7c38.5,0,69.7,31.3,69.7,69.7
				C905.1,621.9,873.8,653.2,835.4,653.2z M835.4,519.6c-35.2,0-63.9,28.6-63.9,63.9c0,35.2,28.6,63.9,63.9,63.9
				s63.9-28.6,63.9-63.9C899.2,548.2,870.6,519.6,835.4,519.6z"/>
		</g>
	</g>
	<g>
		<g>
			<polygon fill="#FFFFFF" points="884.3,103.5 884.3,256.9 942.4,212.2 1000.1,256.6 1000.1,103.5 			"/>
			<path fill="#231F20" d="M880.8,264.1V99.9h122.9v163.9l-61.2-47.1L880.8,264.1z M887.9,107v142.8l54.6-42l54.2,41.7V107H887.9z"
				/>
		</g>
		<g>
			<polygon fill="#FFFFFF" points="878.5,70.9 878.5,241.2 942.5,191.6 1005.9,240.9 1005.9,70.9 			"/>
			<path fill="#231F20" d="M875,248.5V67.3h134.5v180.8l-67-52L875,248.5z M882.1,74.4V234l60.4-46.9l60,46.6V74.4H882.1z"/>
		</g>
	</g>
	<g>
		<g>
			<polygon fill="#FFFFFF" points="884.5,345.5 884.5,451.7 942.4,501.1 1000,451.4 1000,345.5 			"/>
			<path fill="#231F20" d="M942.4,505.7l-61.5-52.4V342h122.6v111L942.4,505.7z M888,450l54.4,46.4l54.1-46.7V349H888V450z"/>
		</g>
		<g>
			<polygon fill="#FFFFFF" points="878.6,310.6 878.6,433.7 942.5,478.1 1005.8,433.3 1005.8,310.6 			"/>
			<path fill="#231F20" d="M942.5,482.4l-67.3-47V307.1h134.2v128L942.5,482.4z M882.2,431.8l60.3,42l59.9-42.3V314.2H882.2V431.8z"
				/>
		</g>
	</g>
	<g>
		<g>
			<polygon fill="#FFFFFF" points="1044.2,310.6 1044.2,422.5 1115.2,462.9 1185.7,422.2 1185.7,310.6 			"/>
			<path fill="#231F20" d="M1115.2,467l-74.5-42.5V307.1h148.5v117.1L1115.2,467z M1047.7,420.4l67.4,38.4l67-38.7v-106h-134.4
				V420.4z"/>
		</g>
		<g>
			<polygon fill="#FFFFFF" points="1057.2,330.3 1057.2,436.4 1115.1,485.8 1172.7,436.1 1172.7,330.3 			"/>
			<path fill="#231F20" d="M1115.1,490.5l-61.5-52.4V326.8h122.6v111L1115.1,490.5z M1060.7,434.8l54.4,46.4l54.1-46.7V333.8h-108.5
				V434.8z"/>
		</g>
	</g>
	<g>
		<g>
			<polygon fill="#FFFFFF" points="1231.3,310.6 1231.3,422.6 1292.5,474.7 1353.2,422.3 1353.2,310.6 			"/>
			<path fill="#231F20" d="M1292.5,479.4l-64.7-55.1V307.1h129v116.8L1292.5,479.4z M1234.9,421l57.6,49.1l57.2-49.4V314.2h-114.8
				V421z"/>
		</g>
	</g>
	<g>
		<g>
			<polygon fill="#FFFFFF" points="1051.2,70.9 1051.2,241.2 1115.2,191.6 1178.6,240.9 1178.6,70.9 			"/>
			<path fill="#231F20" d="M1047.7,248.5V67.3h134.5v180.8l-67-52L1047.7,248.5z M1054.8,74.4V234l60.4-46.9l60,46.6V74.4H1054.8z"
				/>
		</g>
		<g>
			<polygon fill="#FFFFFF" points="1051.2,70.9 1051.2,219.6 1115.2,171.6 1178.6,219.3 1178.6,70.9 			"/>
			<path fill="#231F20" d="M1047.7,226.7V67.3h134.5v159l-67-50.4L1047.7,226.7z M1054.8,74.4v138.1l60.4-45.4l60,45.1V74.4H1054.8z
				"/>
		</g>
	</g>
	<g>
		<g>
			<polygon fill="#FFFFFF" points="1215.1,70.9 1215.1,219.6 1292.6,171.6 1369.5,219.3 1369.5,70.9 			"/>
			<path fill="#231F20" d="M1211.6,225.9V67.3H1373v158.3l-80.4-49.9L1211.6,225.9z M1218.6,74.4v138.8l73.9-45.8l73.4,45.6V74.4
				H1218.6z"/>
		</g>
		<g>
			<polygon fill="#FFFFFF" points="1228.6,70.9 1228.6,241.2 1292.5,191.6 1356,240.9 1356,70.9 			"/>
			<path fill="#231F20" d="M1225,248.5V67.3h134.5v180.8l-67-52L1225,248.5z M1232.1,74.4V234l60.4-46.9l60,46.6V74.4H1232.1z"/>
		</g>
	</g>
	<g>
		<g>
			<path fill="#231F20" d="M1090,632c-1.1,0-2,0.9-2,2v10.2c0,1.1,0.9,2,2,2s2-0.9,2-2V634C1092,632.9,1091.1,632,1090,632z"/>
		</g>
		<g>
			<path fill="#231F20" d="M1090,653.1c-1.1,0-2,0.9-2,2v1.1c0,1.1,0.9,2,2,2s2-0.9,2-2v-1.1C1092,654,1091.1,653.1,1090,653.1z"/>
		</g>
		<g>
			<path fill="#231F20" d="M1090,670.5c-1.1,0-2,0.9-2,2v10.9c0,0.2,0,0.4,0.1,0.5c0,0.2-0.1,0.4-0.1,0.5v10.2c0,1.1,0.9,2,2,2
				s2-0.9,2-2v-10.2c0-0.2,0-0.4-0.1-0.5c0-0.2,0.1-0.4,0.1-0.5v-10.9C1092,671.4,1091.1,670.5,1090,670.5z"/>
		</g>
		<g>
			<path fill="#231F20" d="M1177.2,669.3l-7.2,7.2c-0.8,0.8-0.8,2.1,0,2.9c0.4,0.4,0.9,0.6,1.4,0.6c0.5,0,1-0.2,1.4-0.6l7.2-7.2
				c0.8-0.8,0.8-2.1,0-2.9C1179.2,668.5,1178,668.5,1177.2,669.3z"/>
		</g>
		<g>
			<path fill="#231F20" d="M1162.9,688.4c0.5,0,1-0.2,1.4-0.6l0.8-0.8c0.8-0.8,0.8-2.1,0-2.9c-0.8-0.8-2.1-0.8-2.9,0l-0.8,0.8
				c-0.8,0.8-0.8,2.1,0,2.9C1161.9,688.2,1162.4,688.4,1162.9,688.4z"/>
		</g>
		<g>
			<path fill="#231F20" d="M1134.2,712.2c-0.8,0.8-0.8,2.1,0,2.9c0.4,0.4,0.9,0.6,1.4,0.6c0.5,0,1-0.2,1.4-0.6l7.2-7.2
				c0.1-0.1,0.2-0.3,0.3-0.5c0.2-0.1,0.3-0.2,0.5-0.3l7.7-7.7c0.8-0.8,0.8-2.1,0-2.9c-0.8-0.8-2.1-0.8-2.9,0l-7.7,7.7
				c-0.1,0.1-0.2,0.3-0.3,0.5c-0.2,0.1-0.3,0.2-0.5,0.3L1134.2,712.2z"/>
		</g>
		<g>
			<path fill="#231F20" d="M1215.3,757.3h-10.2c-1.1,0-2,0.9-2,2c0,1.1,0.9,2,2,2h10.2c1.1,0,2-0.9,2-2
				C1217.3,758.2,1216.4,757.3,1215.3,757.3z"/>
		</g>
		<g>
			<path fill="#231F20" d="M1165.3,757.4c-0.2,0-0.4-0.1-0.5-0.1h-10.2c-1.1,0-2,0.9-2,2c0,1.1,0.9,2,2,2h10.2c0.2,0,0.4,0,0.5-0.1
				c0.2,0,0.4,0.1,0.5,0.1h10.9c1.1,0,2-0.9,2-2c0-1.1-0.9-2-2-2h-10.9C1165.7,757.3,1165.5,757.4,1165.3,757.4z"/>
		</g>
		<g>
			<path fill="#231F20" d="M1196.3,759.4c0-1.1-0.9-2-2-2h-1.1c-1.1,0-2,0.9-2,2c0,1.1,0.9,2,2,2h1.1
				C1195.3,761.4,1196.3,760.5,1196.3,759.4z"/>
		</g>
		<g>
			<path fill="#231F20" d="M1172.8,839.3c-0.8-0.8-2.1-0.8-2.9,0c-0.8,0.8-0.8,2.1,0,2.9l7.2,7.2c0.4,0.4,0.9,0.6,1.4,0.6
				c0.5,0,1-0.2,1.4-0.6c0.8-0.8,0.8-2.1,0-2.9L1172.8,839.3z"/>
		</g>
		<g>
			<path fill="#231F20" d="M1145.1,811.6c-0.1-0.1-0.3-0.2-0.5-0.3c-0.1-0.2-0.2-0.3-0.3-0.5l-7.2-7.2c-0.8-0.8-2.1-0.8-2.9,0
				c-0.8,0.8-0.8,2.1,0,2.9l7.2,7.2c0.1,0.1,0.3,0.2,0.5,0.3c0.1,0.2,0.2,0.3,0.3,0.5l7.7,7.7c0.4,0.4,0.9,0.6,1.4,0.6
				c0.5,0,1-0.2,1.4-0.6c0.8-0.8,0.8-2.1,0-2.9L1145.1,811.6z"/>
		</g>
		<g>
			<path fill="#231F20" d="M1164.4,830.9c-0.8-0.8-2.1-0.8-2.9,0c-0.8,0.8-0.8,2.1,0,2.9l0.8,0.8c0.4,0.4,0.9,0.6,1.4,0.6
				c0.5,0,1-0.2,1.4-0.6c0.8-0.8,0.8-2.1,0-2.9L1164.4,830.9z"/>
		</g>
		<g>
			<path fill="#231F20" d="M1090,872.5c-1.1,0-2,0.9-2,2v10.2c0,1.1,0.9,2,2,2s2-0.9,2-2v-10.2C1092,873.4,1091.1,872.5,1090,872.5z
				"/>
		</g>
		<g>
			<path fill="#231F20" d="M1090,860.5c-1.1,0-2,0.9-2,2v1.1c0,1.1,0.9,2,2,2s2-0.9,2-2v-1.1C1092,861.4,1091.1,860.5,1090,860.5z"
				/>
		</g>
		<g>
			<path fill="#231F20" d="M1090,821.9c-1.1,0-2,0.9-2,2v10.2c0,0.2,0,0.4,0.1,0.5c0,0.2-0.1,0.4-0.1,0.5v10.9c0,1.1,0.9,2,2,2
				s2-0.9,2-2v-10.9c0-0.2,0-0.4-0.1-0.5c0-0.2,0.1-0.4,0.1-0.5V824C1092,822.8,1091.1,821.9,1090,821.9z"/>
		</g>
		<g>
			<path fill="#231F20" d="M1007.1,839.3l-7.2,7.2c-0.8,0.8-0.8,2.1,0,2.9c0.4,0.4,0.9,0.6,1.4,0.6s1-0.2,1.4-0.6l7.2-7.2
				c0.8-0.8,0.8-2.1,0-2.9C1009.2,838.5,1007.9,838.5,1007.1,839.3z"/>
		</g>
		<g>
			<path fill="#231F20" d="M1015.6,830.9l-0.8,0.8c-0.8,0.8-0.8,2.1,0,2.9c0.4,0.4,0.9,0.6,1.4,0.6s1-0.2,1.4-0.6l0.8-0.8
				c0.8-0.8,0.8-2.1,0-2.9C1017.7,830.1,1016.4,830.1,1015.6,830.9z"/>
		</g>
		<g>
			<path fill="#231F20" d="M1045.7,806.5c0.8-0.8,0.8-2.1,0-2.9c-0.8-0.8-2.1-0.8-2.9,0l-7.2,7.2c-0.1,0.1-0.2,0.3-0.3,0.5
				c-0.2,0.1-0.3,0.2-0.5,0.3l-7.7,7.7c-0.8,0.8-0.8,2.1,0,2.9c0.4,0.4,0.9,0.6,1.4,0.6c0.5,0,1-0.2,1.4-0.6l7.7-7.7
				c0.1-0.1,0.2-0.3,0.3-0.5c0.2-0.1,0.3-0.2,0.5-0.3L1045.7,806.5z"/>
		</g>
		<g>
			<path fill="#231F20" d="M976.9,759.4c0-1.1-0.9-2-2-2h-10.2c-1.1,0-2,0.9-2,2c0,1.1,0.9,2,2,2h10.2
				C976,761.4,976.9,760.5,976.9,759.4z"/>
		</g>
		<g>
			<path fill="#231F20" d="M986.8,757.3h-1.1c-1.1,0-2,0.9-2,2c0,1.1,0.9,2,2,2h1.1c1.1,0,2-0.9,2-2
				C988.9,758.2,987.9,757.3,986.8,757.3z"/>
		</g>
		<g>
			<path fill="#231F20" d="M1015.2,757.3c-0.2,0-0.4,0-0.5,0.1c-0.2,0-0.4-0.1-0.5-0.1h-10.9c-1.1,0-2,0.9-2,2c0,1.1,0.9,2,2,2h10.9
				c0.2,0,0.4,0,0.5-0.1c0.2,0,0.4,0.1,0.5,0.1h10.2c1.1,0,2-0.9,2-2c0-1.1-0.9-2-2-2H1015.2z"/>
		</g>
		<g>
			<path fill="#231F20" d="M1007.1,679.4c0.4,0.4,0.9,0.6,1.4,0.6s1-0.2,1.4-0.6c0.8-0.8,0.8-2.1,0-2.9l-7.2-7.2
				c-0.8-0.8-2.1-0.8-2.9,0c-0.8,0.8-0.8,2.1,0,2.9L1007.1,679.4z"/>
		</g>
		<g>
			<path fill="#231F20" d="M1015.6,687.9c0.4,0.4,0.9,0.6,1.4,0.6s1-0.2,1.4-0.6c0.8-0.8,0.8-2.1,0-2.9l-0.8-0.8
				c-0.8-0.8-2.1-0.8-2.9,0c-0.8,0.8-0.8,2.1,0,2.9L1015.6,687.9z"/>
		</g>
		<g>
			<path fill="#231F20" d="M1034.9,707.1c0.1,0.1,0.3,0.2,0.5,0.3c0.1,0.2,0.2,0.3,0.3,0.5l7.2,7.2c0.4,0.4,0.9,0.6,1.4,0.6
				c0.5,0,1-0.2,1.4-0.6c0.8-0.8,0.8-2.1,0-2.9l-7.2-7.2c-0.1-0.1-0.3-0.2-0.5-0.3c-0.1-0.2-0.2-0.3-0.3-0.5l-7.7-7.7
				c-0.8-0.8-2.1-0.8-2.9,0c-0.8,0.8-0.8,2.1,0,2.9L1034.9,707.1z"/>
		</g>
		<g>
			<path fill="#231F20" d="M1132.9,654.7c0.3,0.1,0.5,0.2,0.8,0.2c0.8,0,1.6-0.5,1.9-1.3l3.9-9.4c0.4-1-0.1-2.2-1.1-2.7
				c-1-0.4-2.2,0.1-2.7,1.1l-3.9,9.4C1131.3,653.1,1131.8,654.3,1132.9,654.7z"/>
		</g>
		<g>
			<path fill="#231F20" d="M1129.1,665.9c0.8,0,1.6-0.5,1.9-1.3l0.4-1c0.4-1-0.1-2.2-1.1-2.7c-1-0.4-2.2,0.1-2.7,1.1l-0.4,1
				c-0.4,1,0.1,2.2,1.1,2.7C1128.6,665.9,1128.8,665.9,1129.1,665.9z"/>
		</g>
		<g>
			<path fill="#231F20" d="M1113.7,701.4c0.3,0.1,0.5,0.2,0.8,0.2c0.8,0,1.6-0.5,1.9-1.3l3.9-9.4c0.1-0.2,0.1-0.4,0.1-0.5
				c0.1-0.1,0.2-0.3,0.3-0.5l4.1-10.1c0.4-1-0.1-2.2-1.1-2.7c-1-0.4-2.2,0.1-2.7,1.1l-4.1,10.1c-0.1,0.2-0.1,0.4-0.1,0.5
				c-0.1,0.1-0.2,0.3-0.3,0.5l-3.9,9.4C1112.2,699.8,1112.7,701,1113.7,701.4z"/>
		</g>
		<g>
			<path fill="#231F20" d="M1196.2,716.9c0.3,0,0.5-0.1,0.8-0.2l9.4-3.9c1-0.4,1.5-1.6,1.1-2.7c-0.4-1-1.6-1.5-2.7-1.1l-9.4,3.9
				c-1,0.4-1.5,1.6-1.1,2.7C1194.6,716.4,1195.4,716.9,1196.2,716.9z"/>
		</g>
		<g>
			<path fill="#231F20" d="M1185.1,721.5c0.3,0,0.5-0.1,0.8-0.2l1-0.4c1-0.4,1.5-1.6,1.1-2.7c-0.4-1-1.6-1.5-2.7-1.1l-1,0.4
				c-1,0.4-1.5,1.6-1.1,2.7C1183.6,721.1,1184.3,721.5,1185.1,721.5z"/>
		</g>
		<g>
			<path fill="#231F20" d="M1148.8,732.5c-1,0.4-1.5,1.6-1.1,2.7c0.3,0.8,1.1,1.3,1.9,1.3c0.3,0,0.5-0.1,0.8-0.2l9.4-3.9
				c0.2-0.1,0.3-0.2,0.5-0.3c0.2,0,0.4-0.1,0.5-0.1l10.1-4.2c1-0.4,1.5-1.6,1.1-2.7c-0.4-1-1.6-1.5-2.7-1.1l-10.1,4.2
				c-0.2,0.1-0.3,0.2-0.5,0.3c-0.2,0-0.4,0.1-0.5,0.1L1148.8,732.5z"/>
		</g>
		<g>
			<path fill="#231F20" d="M1206.7,805l-9.4-3.9c-1-0.4-2.2,0.1-2.7,1.1c-0.4,1,0.1,2.2,1.1,2.7l9.4,3.9c0.3,0.1,0.5,0.2,0.8,0.2
				c0.8,0,1.6-0.5,1.9-1.3C1208.3,806.6,1207.8,805.4,1206.7,805z"/>
		</g>
		<g>
			<path fill="#231F20" d="M1187.2,797l-1-0.4c-1-0.4-2.2,0.1-2.7,1.1c-0.4,1,0.1,2.2,1.1,2.7l1,0.4c0.3,0.1,0.5,0.2,0.8,0.2
				c0.8,0,1.6-0.5,1.9-1.3C1188.7,798.6,1188.3,797.4,1187.2,797z"/>
		</g>
		<g>
			<path fill="#231F20" d="M1169.5,794.1c0.3,0.1,0.5,0.2,0.8,0.2c0.8,0,1.6-0.5,1.9-1.3c0.4-1-0.1-2.2-1.1-2.7l-10.1-4.1
				c-0.2-0.1-0.4-0.1-0.5-0.1c-0.1-0.1-0.3-0.2-0.5-0.3l-9.4-3.9c-1-0.4-2.2,0.1-2.7,1.1c-0.4,1,0.1,2.2,1.1,2.7l9.4,3.9
				c0.2,0.1,0.4,0.1,0.5,0.1c0.1,0.1,0.3,0.2,0.5,0.3L1169.5,794.1z"/>
		</g>
		<g>
			<path fill="#231F20" d="M1136.3,864.8c-0.4-1-1.6-1.5-2.7-1.1c-1,0.4-1.5,1.6-1.1,2.7l3.9,9.4c0.3,0.8,1.1,1.3,1.9,1.3
				c0.3,0,0.5-0.1,0.8-0.2c1-0.4,1.5-1.6,1.1-2.7L1136.3,864.8z"/>
		</g>
		<g>
			<path fill="#231F20" d="M1121.2,828.6c-0.1-0.2-0.2-0.3-0.3-0.5c0-0.2-0.1-0.4-0.1-0.5l-3.9-9.4c-0.4-1-1.6-1.5-2.7-1.1
				c-1,0.4-1.5,1.6-1.1,2.7l3.9,9.4c0.1,0.2,0.2,0.3,0.3,0.5c0,0.2,0.1,0.4,0.1,0.5l4.2,10.1c0.3,0.8,1.1,1.3,1.9,1.3
				c0.3,0,0.5-0.1,0.8-0.2c1-0.4,1.5-1.6,1.1-2.7L1121.2,828.6z"/>
		</g>
		<g>
			<path fill="#231F20" d="M1131.7,853.7c-0.4-1-1.6-1.5-2.7-1.1c-1,0.4-1.5,1.6-1.1,2.7l0.4,1c0.3,0.8,1.1,1.2,1.9,1.2
				c0.3,0,0.5-0.1,0.8-0.2c1-0.4,1.5-1.6,1.1-2.7L1131.7,853.7z"/>
		</g>
		<g>
			<path fill="#231F20" d="M1047.1,864c-1-0.4-2.2,0.1-2.7,1.1l-3.9,9.4c-0.4,1,0.1,2.2,1.1,2.7c0.3,0.1,0.5,0.2,0.8,0.2
				c0.8,0,1.6-0.5,1.9-1.3l3.9-9.4C1048.6,865.6,1048.1,864.4,1047.1,864z"/>
		</g>
		<g>
			<path fill="#231F20" d="M1051.6,852.9c-1-0.4-2.2,0.1-2.7,1.1l-0.4,1c-0.4,1,0.1,2.2,1.1,2.7c0.3,0.1,0.5,0.2,0.8,0.2
				c0.8,0,1.6-0.5,1.9-1.3l0.4-1C1053.2,854.5,1052.7,853.3,1051.6,852.9z"/>
		</g>
		<g>
			<path fill="#231F20" d="M1066.3,817.3c-1-0.4-2.2,0.1-2.7,1.1l-3.9,9.4c-0.1,0.2-0.1,0.4-0.1,0.5c-0.1,0.1-0.2,0.3-0.3,0.5
				l-4.1,10.1c-0.4,1,0.1,2.2,1.1,2.7c0.3,0.1,0.5,0.2,0.8,0.2c0.8,0,1.6-0.5,1.9-1.3l4.1-10.1c0.1-0.2,0.1-0.4,0.1-0.5
				c0.1-0.1,0.2-0.3,0.3-0.5l3.9-9.4C1067.8,818.9,1067.3,817.7,1066.3,817.3z"/>
		</g>
		<g>
			<path fill="#231F20" d="M983,801.9l-9.4,3.9c-1,0.4-1.5,1.6-1.1,2.7c0.3,0.8,1.1,1.3,1.9,1.3c0.3,0,0.5-0.1,0.8-0.2l9.4-3.9
				c1-0.4,1.5-1.6,1.1-2.7C985.2,802,984,801.5,983,801.9z"/>
		</g>
		<g>
			<path fill="#231F20" d="M994,797.3l-1,0.4c-1,0.4-1.5,1.6-1.1,2.7c0.3,0.8,1.1,1.3,1.9,1.3c0.3,0,0.5-0.1,0.8-0.2l1-0.4
				c1-0.4,1.5-1.6,1.1-2.7C996.3,797.4,995.1,796.9,994,797.3z"/>
		</g>
		<g>
			<path fill="#231F20" d="M1031.2,786.2c1-0.4,1.5-1.6,1.1-2.7c-0.4-1-1.6-1.5-2.7-1.1l-9.4,3.9c-0.2,0.1-0.3,0.2-0.5,0.3
				c-0.2,0-0.4,0.1-0.5,0.1l-10.1,4.2c-1,0.4-1.5,1.6-1.1,2.7c0.3,0.8,1.1,1.3,1.9,1.3c0.3,0,0.5-0.1,0.8-0.2l10.1-4.2
				c0.2-0.1,0.3-0.2,0.5-0.3c0.2,0,0.4-0.1,0.5-0.1L1031.2,786.2z"/>
		</g>
		<g>
			<path fill="#231F20" d="M973.2,713.7l9.4,3.9c0.3,0.1,0.5,0.2,0.8,0.2c0.8,0,1.6-0.5,1.9-1.3c0.4-1-0.1-2.2-1.1-2.7l-9.4-3.9
				c-1-0.4-2.2,0.1-2.7,1.1C971.7,712.1,972.2,713.3,973.2,713.7z"/>
		</g>
		<g>
			<path fill="#231F20" d="M1010.4,724.6c-1-0.4-2.2,0.1-2.7,1.1c-0.4,1,0.1,2.2,1.1,2.7l10.1,4.1c0.2,0.1,0.4,0.1,0.5,0.1
				c0.1,0.1,0.3,0.2,0.5,0.3l9.4,3.9c0.3,0.1,0.5,0.2,0.8,0.2c0.8,0,1.6-0.5,1.9-1.3c0.4-1-0.1-2.2-1.1-2.7l-9.4-3.9
				c-0.2-0.1-0.4-0.1-0.5-0.1c-0.1-0.1-0.3-0.2-0.5-0.3L1010.4,724.6z"/>
		</g>
		<g>
			<path fill="#231F20" d="M992.7,721.7l1,0.4c0.3,0.1,0.5,0.2,0.8,0.2c0.8,0,1.6-0.5,1.9-1.3c0.4-1-0.1-2.2-1.1-2.7l-1-0.4
				c-1-0.4-2.2,0.1-2.7,1.1C991.2,720.1,991.7,721.3,992.7,721.7z"/>
		</g>
		<g>
			<path fill="#231F20" d="M1043.6,653.9c0.3,0.8,1.1,1.3,1.9,1.3c0.3,0,0.5-0.1,0.8-0.2c1-0.4,1.5-1.6,1.1-2.7l-3.9-9.4
				c-0.4-1-1.6-1.5-2.7-1.1c-1,0.4-1.5,1.6-1.1,2.7L1043.6,653.9z"/>
		</g>
		<g>
			<path fill="#231F20" d="M1059.1,690.6c0,0.2,0.1,0.4,0.1,0.5l3.9,9.4c0.3,0.8,1.1,1.3,1.9,1.3c0.3,0,0.5-0.1,0.8-0.2
				c1-0.4,1.5-1.6,1.1-2.7l-3.9-9.4c-0.1-0.2-0.2-0.3-0.3-0.5c0-0.2-0.1-0.4-0.1-0.5l-4.2-10.1c-0.4-1-1.6-1.5-2.7-1.1
				c-1,0.4-1.5,1.6-1.1,2.7l4.2,10.1C1058.9,690.3,1059,690.5,1059.1,690.6z"/>
		</g>
		<g>
			<path fill="#231F20" d="M1048.3,665c0.3,0.8,1.1,1.3,1.9,1.3c0.3,0,0.5-0.1,0.8-0.2c1-0.4,1.5-1.6,1.1-2.7l-0.4-1
				c-0.4-1-1.6-1.5-2.7-1.1c-1,0.4-1.5,1.6-1.1,2.7L1048.3,665z"/>
		</g>
	</g>
	<g>
		<g>
			<path fill="#231F20" d="M1231.3,505.7c-1.6,0-2.9,1.3-2.9,2.9v1.6c0,1.6,1.3,2.9,2.9,2.9c1.6,0,2.9-1.3,2.9-2.9v-1.6
				C1234.3,507,1233,505.7,1231.3,505.7z"/>
		</g>
		<g>
			<path fill="#231F20" d="M1231.3,531c-1.6,0-2.9,1.3-2.9,2.9v15.8c0,0.3,0,0.5,0.1,0.8c-0.1,0.3-0.1,0.5-0.1,0.8V566
				c0,1.6,1.3,2.9,2.9,2.9c1.6,0,2.9-1.3,2.9-2.9v-14.7c0-0.3,0-0.5-0.1-0.8c0.1-0.3,0.1-0.5,0.1-0.8v-15.8
				C1234.3,532.3,1233,531,1231.3,531z"/>
		</g>
		<g>
			<path fill="#231F20" d="M1336.9,556.9c0.8,0,1.5-0.3,2.1-0.9l1.1-1.1c1.2-1.2,1.2-3,0-4.2c-1.2-1.2-3-1.2-4.2,0l-1.1,1.1
				c-1.2,1.2-1.2,3,0,4.2C1335.4,556.6,1336.2,556.9,1336.9,556.9z"/>
		</g>
		<g>
			<path fill="#231F20" d="M1295.4,591.3c-1.2,1.2-1.2,3,0,4.2c0.6,0.6,1.3,0.9,2.1,0.9s1.5-0.3,2.1-0.9l10.4-10.4
				c0.2-0.2,0.3-0.4,0.4-0.7c0.2-0.1,0.5-0.2,0.7-0.4l11.2-11.2c1.2-1.2,1.2-3,0-4.2c-1.2-1.2-3-1.2-4.2,0l-11.2,11.2
				c-0.2,0.2-0.3,0.4-0.4,0.7c-0.2,0.1-0.5,0.2-0.7,0.4L1295.4,591.3z"/>
		</g>
		<g>
			<path fill="#231F20" d="M1123.7,556.1c0.6,0.6,1.3,0.9,2.1,0.9s1.5-0.3,2.1-0.9c1.2-1.2,1.2-3,0-4.2l-1.1-1.1
				c-1.2-1.2-3-1.2-4.2,0c-1.2,1.2-1.2,3,0,4.2L1123.7,556.1z"/>
		</g>
		<g>
			<path fill="#231F20" d="M1151.6,584c0.2,0.2,0.4,0.3,0.7,0.4c0.1,0.2,0.2,0.5,0.4,0.7l10.4,10.4c0.6,0.6,1.3,0.9,2.1,0.9
				s1.5-0.3,2.1-0.9c1.2-1.2,1.2-3,0-4.2l-10.4-10.4c-0.2-0.2-0.4-0.3-0.7-0.4c-0.1-0.2-0.2-0.5-0.4-0.7l-11.2-11.2
				c-1.2-1.2-3-1.2-4.2,0c-1.2,1.2-1.2,3,0,4.2L1151.6,584z"/>
		</g>
		<g>
			<path fill="#231F20" d="M1287.9,524.3c1.2,0,2.3-0.7,2.7-1.8l0.6-1.5c0.6-1.5-0.1-3.2-1.6-3.8c-1.5-0.6-3.2,0.1-3.8,1.6l-0.6,1.5
				c-0.6,1.5,0.1,3.2,1.6,3.8C1287.2,524.3,1287.6,524.3,1287.9,524.3z"/>
		</g>
		<g>
			<path fill="#231F20" d="M1265.7,575.7c0.4,0.1,0.7,0.2,1.1,0.2c1.2,0,2.3-0.7,2.7-1.8l5.6-13.6c0.1-0.3,0.2-0.5,0.2-0.8
				c0.2-0.2,0.3-0.4,0.4-0.7l6-14.6c0.6-1.5-0.1-3.2-1.6-3.8c-1.5-0.6-3.2,0.1-3.8,1.6l-6,14.6c-0.1,0.3-0.2,0.5-0.2,0.8
				c-0.2,0.2-0.3,0.4-0.4,0.7l-5.6,13.6C1263.5,573.4,1264.2,575.1,1265.7,575.7z"/>
		</g>
		<g>
			<path fill="#231F20" d="M1186.6,560c0,0.3,0.1,0.5,0.2,0.8l5.7,13.6c0.5,1.1,1.6,1.8,2.7,1.8c0.4,0,0.8-0.1,1.1-0.2
				c1.5-0.6,2.2-2.4,1.6-3.9l-5.7-13.6c-0.1-0.3-0.3-0.5-0.4-0.7c0-0.3-0.1-0.5-0.2-0.8l-6.1-14.6c-0.6-1.5-2.4-2.2-3.9-1.6
				c-1.5,0.6-2.2,2.4-1.6,3.9l6.1,14.6C1186.3,559.6,1186.4,559.8,1186.6,560z"/>
		</g>
		<g>
			<path fill="#231F20" d="M1171,523c0.5,1.1,1.6,1.8,2.7,1.8c0.4,0,0.8-0.1,1.1-0.2c1.5-0.6,2.2-2.4,1.6-3.9l-0.6-1.5
				c-0.6-1.5-2.4-2.2-3.9-1.6c-1.5,0.6-2.2,2.4-1.6,3.9L1171,523z"/>
		</g>
	</g>
	<g>
		<g>
			<rect x="396.1" y="149.6" fill="#231F20" width="70.7" height="5.9"/>
		</g>
		<g>
			<rect x="781.2" y="149.6" fill="#231F20" width="70.7" height="5.9"/>
		</g>
		<g>
			<path fill="#FFFFFF" d="M803,102.2H445c-6.3,0-11.5,4.1-11.5,9.2v78.7c0,5.1,5.2,9.2,11.5,9.2H803c6.3,0,11.5-4.1,11.5-9.2v-78.7
				C814.5,106.4,809.4,102.2,803,102.2z"/>
			<path fill="#231F20" d="M803,202.3H445c-8,0-14.4-5.4-14.4-12.1v-78.7c0-6.7,6.5-12.1,14.4-12.1H803c8,0,14.4,5.4,14.4,12.1v78.7
				C817.5,196.9,811,202.3,803,202.3z M445,105.2c-4.6,0-8.5,2.9-8.5,6.3v78.7c0,3.4,3.9,6.3,8.5,6.3H803c4.6,0,8.5-2.9,8.5-6.3
				v-78.7c0-3.4-3.9-6.3-8.5-6.3H445z"/>
		</g>
		<g>
			<defs>
				<path id="SVGID_3_" d="M803,102.2H445c-6.3,0-11.5,4.1-11.5,9.2v78.7c0,5.1,5.2,9.2,11.5,9.2H803c6.3,0,11.5-4.1,11.5-9.2v-78.7
					C814.5,106.4,809.4,102.2,803,102.2z"/>
			</defs>
			<clipPath id="SVGID_4_">
				<use xlink:href="#SVGID_3_"  overflow="visible"/>
			</clipPath>
			<g clip-path="url(#SVGID_4_)">
				<g>
					
						<rect x="300.2" y="147.9" transform="matrix(0.7071 -0.7071 0.7071 0.7071 13.0487 333.0992)" fill="#231F20" width="216.9" height="5.9"/>
				</g>
				<g>
					
						<rect x="323.8" y="147.9" transform="matrix(0.7071 -0.7071 0.7071 0.7071 19.9807 349.8348)" fill="#231F20" width="216.9" height="5.9"/>
				</g>
				<g>
					
						<rect x="347.5" y="147.9" transform="matrix(0.7071 -0.7071 0.7071 0.7071 26.913 366.5707)" fill="#231F20" width="216.9" height="5.9"/>
				</g>
				<g>
					
						<rect x="371.2" y="147.9" transform="matrix(0.7071 -0.7071 0.7071 0.7071 33.8451 383.3062)" fill="#231F20" width="216.9" height="5.9"/>
				</g>
				<g>
					
						<rect x="394.9" y="147.9" transform="matrix(0.7071 -0.7071 0.7071 0.7071 40.7772 400.0418)" fill="#231F20" width="216.9" height="5.9"/>
				</g>
				<g>
					
						<rect x="418.5" y="147.9" transform="matrix(0.7071 -0.7071 0.7071 0.7071 47.7094 416.7777)" fill="#231F20" width="216.9" height="5.9"/>
				</g>
				<g>
					
						<rect x="442.2" y="147.9" transform="matrix(0.7071 -0.7071 0.7071 0.7071 54.6415 433.5132)" fill="#231F20" width="216.9" height="5.9"/>
				</g>
				<g>
					
						<rect x="465.9" y="147.9" transform="matrix(0.7071 -0.7071 0.7071 0.7071 61.5736 450.2488)" fill="#231F20" width="216.9" height="5.9"/>
				</g>
				<g>
					
						<rect x="489.5" y="147.9" transform="matrix(0.7071 -0.7071 0.7071 0.7071 68.5058 466.9847)" fill="#231F20" width="216.9" height="5.9"/>
				</g>
				<g>
					
						<rect x="513.2" y="147.9" transform="matrix(0.7071 -0.7071 0.7071 0.7071 75.4379 483.7202)" fill="#231F20" width="216.9" height="5.9"/>
				</g>
				<g>
					
						<rect x="536.9" y="147.9" transform="matrix(0.7071 -0.7071 0.7071 0.7071 82.37 500.4558)" fill="#231F20" width="216.9" height="5.9"/>
				</g>
				<g>
					
						<rect x="560.5" y="147.9" transform="matrix(0.7071 -0.7071 0.7071 0.7071 89.3022 517.1917)" fill="#231F20" width="216.9" height="5.9"/>
				</g>
				<g>
					
						<rect x="584.2" y="147.9" transform="matrix(0.7071 -0.7071 0.7071 0.7071 96.2343 533.9272)" fill="#231F20" width="216.9" height="5.9"/>
				</g>
				<g>
					
						<rect x="607.9" y="147.9" transform="matrix(0.7071 -0.7071 0.7071 0.7071 103.1664 550.6628)" fill="#231F20" width="216.9" height="5.9"/>
				</g>
				<g>
					
						<rect x="631.5" y="147.9" transform="matrix(0.7071 -0.7071 0.7071 0.7071 110.0987 567.3987)" fill="#231F20" width="216.9" height="5.9"/>
				</g>
				<g>
					
						<rect x="655.2" y="147.9" transform="matrix(0.7071 -0.7071 0.7071 0.7071 117.0308 584.1342)" fill="#231F20" width="216.9" height="5.9"/>
				</g>
				<g>
					
						<rect x="678.9" y="147.9" transform="matrix(0.7071 -0.7071 0.7071 0.7071 123.9628 600.8698)" fill="#231F20" width="216.9" height="5.9"/>
				</g>
				<g>
					
						<rect x="702.5" y="147.9" transform="matrix(0.7071 -0.7071 0.7071 0.7071 130.8951 617.6057)" fill="#231F20" width="216.9" height="5.9"/>
				</g>
				<g>
					
						<rect x="726.2" y="147.9" transform="matrix(0.7071 -0.7071 0.7071 0.7071 137.8272 634.3412)" fill="#231F20" width="216.9" height="5.9"/>
				</g>
			</g>
		</g>
		<g>
			<path fill="#FFFFFF" d="M771.7,55.6H476.3c-5.2,0-9.5,4.3-9.5,9.5v81c0,5.2,4.3,9.5,9.5,9.5h295.4c5.2,0,9.5-4.3,9.5-9.5v-81
				C781.2,59.9,776.9,55.6,771.7,55.6z"/>
			<path fill="#231F20" d="M771.7,158.5H476.3c-6.8,0-12.4-5.6-12.4-12.4v-81c0-6.8,5.6-12.4,12.4-12.4h295.4
				c6.8,0,12.4,5.6,12.4,12.4v81C784.1,152.9,778.6,158.5,771.7,158.5z M476.3,58.5c-3.6,0-6.5,2.9-6.5,6.5v81
				c0,3.6,2.9,6.5,6.5,6.5h295.4c3.6,0,6.5-2.9,6.5-6.5v-81c0-3.6-2.9-6.5-6.5-6.5H476.3z"/>
		</g>
	</g>
	<g>
		<line fill="#FFFFFF" x1="784" y1="909.7" x2="1330.3" y2="909.7"/>
		<path fill="#231F20" d="M1330.3,912.3H784c-1.4,0-2.5-1.1-2.5-2.5s1.1-2.5,2.5-2.5h546.4c1.4,0,2.5,1.1,2.5,2.5
			S1331.7,912.3,1330.3,912.3z"/>
	</g>
</g>
</svg>
